<svg xmlns="http://www.w3.org/2000/svg" xmlns:xlink="http://www.w3.org/1999/xlink" width="20" height="29" viewBox="0 0 20 29"><defs><path id="nbcaa" d="M960 897.22c.52 0 .94-.42.94-.94v-3.4a.94.94 0 1 0-1.88 0v3.4c0 .52.42.94.94.94zm0-11.3c4.48 0 8.12 3.8 8.12 8.45v8.3c0 4.63-3.64 8.41-8.12 8.41-4.48 0-8.12-3.8-8.12-8.45v-8.26c0-4.66 3.64-8.45 8.12-8.45zm-10 16.71c0 5.72 4.49 10.37 10 10.37s10-4.64 10-10.34v-8.29c0-5.72-4.49-10.37-10-10.37s-10 4.65-10 10.37z"/></defs><g><g transform="translate(-950 -884)"><use fill="#fff" xlink:href="#nbcaa"/></g></g></svg>